<?xml version="1.0" encoding="UTF-8" standalone="no"?>
<svg
   xmlns:dc="http://purl.org/dc/elements/1.1/"
   xmlns:cc="http://creativecommons.org/ns#"
   xmlns:rdf="http://www.w3.org/1999/02/22-rdf-syntax-ns#"
   xmlns:svg="http://www.w3.org/2000/svg"
   xmlns="http://www.w3.org/2000/svg"
   xmlns:sodipodi="http://sodipodi.sourceforge.net/DTD/sodipodi-0.dtd"
   xmlns:inkscape="http://www.inkscape.org/namespaces/inkscape"
   width="110.03056"
   height="107.5"
   viewBox="0 0 88.024445 86"
   version="1.1"
   id="svg2"
   inkscape:version="0.92.2 (5c3e80d, 2017-08-06)"
   sodipodi:docname="icon.svg">
  <metadata
     id="metadata126">
    <rdf:RDF>
      <cc:Work
         rdf:about="">
        <dc:format>image/svg+xml</dc:format>
        <dc:type
           rdf:resource="http://purl.org/dc/dcmitype/StillImage" />
        <dc:title />
      </cc:Work>
    </rdf:RDF>
  </metadata>
  <defs
     id="defs124">
    <linearGradient
       y2="11.232"
       x2="197.17"
       y1="249.007"
       x1="200.788"
       gradientUnits="userSpaceOnUse"
       id="Gradient_1">
      <stop
         id="stop5"
         stop-color="#589632"
         offset="0" />
      <stop
         id="stop7"
         stop-color="#93B023"
         offset="1" />
    </linearGradient>
    <linearGradient
       y2="16.928"
       x2="126.351"
       y1="252.718"
       x1="129.939"
       gradientUnits="userSpaceOnUse"
       id="Gradient_2">
      <stop
         id="stop10"
         stop-color="#589632"
         offset="0" />
      <stop
         id="stop12"
         stop-color="#93B023"
         offset="1" />
    </linearGradient>
  </defs>
  <sodipodi:namedview
     pagecolor="#ffffff"
     bordercolor="#666666"
     borderopacity="1"
     objecttolerance="10"
     gridtolerance="10"
     guidetolerance="10"
     inkscape:pageopacity="0"
     inkscape:pageshadow="2"
     inkscape:window-width="1920"
     inkscape:window-height="1017"
     id="namedview122"
     showgrid="false"
     fit-margin-top="0"
     fit-margin-left="0"
     fit-margin-right="0"
     fit-margin-bottom="0"
     inkscape:zoom="6.1693556"
     inkscape:cx="45.084074"
     inkscape:cy="51.079432"
     inkscape:window-x="-8"
     inkscape:window-y="-8"
     inkscape:window-maximized="1"
     inkscape:current-layer="svg2" />
  <path
     style="fill:#2a5699"
     d="m 51.984444,8 c 10.7,0.06 21.39,-0.11 32.08,0.06 2.28,-0.23 4.07,1.54 3.86,3.82 0.17,19.7 -0.04,39.41 0.1,59.11 -0.1,2.02 0.2,4.26 -0.97,6.05 -1.46,1.04 -3.35,0.91 -5.05,0.99 -10.01,-0.05 -20.01,-0.03 -30.02,-0.03"
     id="path6" />
  <rect
     style="opacity:1;fill:#ffffff;fill-opacity:1;fill-rule:evenodd;stroke:#ffffff;stroke-width:2.96161985;stroke-linecap:round;stroke-linejoin:miter;stroke-miterlimit:4;stroke-dasharray:none;stroke-dashoffset:0;stroke-opacity:1"
     id="rect871"
     width="33.07518"
     height="61.25935"
     x="50.261101"
     y="12.222161"
     ry="0" />
  <g
     id="g862"
     transform="matrix(0.24374236,0,0,0.24374236,22.873307,13.582073)">
    <g
       id="g17" />
    <g
       id="Layer_1">
      <path
         id="polygon3"
         d="m 137.607,136.899 h 34.437 L 142.898,108.083 H 107.19 v 34.309 l 30.417,30.316 z"
         inkscape:connector-curvature="0"
         style="fill:#ee7913" />
      <path
         id="polygon10"
         d="M 248.061,212.048 186.618,151.306 H 152.01 v 35.761 l 58.881,58.682 h 37.17 z"
         inkscape:connector-curvature="0"
         style="fill:url(#Gradient_1)" />
      <path
         id="polygon12"
         d="m 152.01,151.306 h 34.608 l -14.574,-14.407 h -34.437 v 35.809 l 14.403,14.359 z"
         inkscape:connector-curvature="0"
         style="fill:#f0e64a" />
      <path
         id="path19"
         d="m 144.826,199.3 c -5.22,1.202 -10.643,1.854 -16.238,1.854 -40.027,0 -74.072,-32.914 -74.072,-75.59 0,-42.677 33.666,-74.869 74.072,-74.869 40.401,0 72.57,32.187 72.57,74.869 0,6.937 -0.863,13.619 -2.461,19.945 l 37.047,37.042 c 9.552,-16.736 14.896,-36.197 14.896,-57.274 0,-65.778 -52.493,-115.026 -122.801,-115.026 -69.99,0 -122.479,48.927 -122.479,115.026 0,66.421 52.489,116.321 122.479,116.321 18.066,0 34.952,-3.323 50.077,-9.371 z"
         inkscape:connector-curvature="0"
         style="fill:url(#Gradient_2)" />
      <path
         id="polygon4153"
         d="M 107.19,108.083 248.061,245.749 V 212.048 L 186.618,151.306 172.044,136.898 142.898,108.083 Z"
         inkscape:connector-curvature="0"
         style="fill:#ffffff;fill-opacity:0.172" />
    </g>
  </g>
  <path
     style="fill:#2a5699"
     d="m 51.984444,78 v 8 h -6.25 c -15.22,-2.78 -30.48,-5.33 -45.73,-8 -0.01,-23.33 0,-46.66 0,-69.98 15.33,-2.68 30.67,-5.29 46,-8.02 h 5.98 v 8"
     id="path869" />
  <path
     style="fill:#ffffff"
     inkscape:connector-curvature="0"
     d="m 20.664444,28.67 c 1.9,-0.11 3.8,-0.19 5.7,-0.29 1.33,6.75 2.69,13.49 4.13,20.21 1.13,-6.94 2.38,-13.86 3.59,-20.79 2,-0.07 4,-0.18 5.99,-0.3 -2.26,9.69 -4.24,19.46 -6.71,29.09 -1.67,0.87 -4.17,-0.04 -6.15,0.1 -1.33,-6.62 -2.88,-13.2 -4.07,-19.85 -1.17,6.46 -2.69,12.86 -4.03,19.28 -1.92,-0.1 -3.85,-0.22 -5.78,-0.35 -1.66,-8.8 -3.61,-17.54 -5.16,-26.36 1.71,-0.08 3.43,-0.15 5.14,-0.21 1.03,6.37 2.2,12.71 3.1,19.09 1.41,-6.54 2.85,-13.08 4.25,-19.62 z"
     id="path88" />
</svg>
